<svg xmlns="http://www.w3.org/2000/svg" width="700" height="500"><rect width="700" height="500" x="0" y="0" fill="#FFFFFF" id="backgorund"/><g id="viz"><g transform="translate(0,0)"><g transform="translate(10,20)"><g><path fill="#d62728" d="M0,-0.49999999999998934C17,-0.49999999999998934,17,-4.95999999999999,34,-4.95999999999999C51,-4.95999999999999,51,-5.419999999999991,68,-5.419999999999991C85,-5.419999999999991,85,-7.719999999999992,102,-7.719999999999992C119,-7.719999999999992,119,-8.179999999999993,136,-8.179999999999993C153,-8.179999999999993,153,-8.179999999999993,170,-8.179999999999993C187,-8.179999999999993,187,-7.719999999999992,204,-7.719999999999992C221,-7.719999999999992,221,-8.179999999999993,237.99999999999997,-8.179999999999993C255,-8.179999999999993,255,-6.339999999999991,272,-6.339999999999991C289,-6.339999999999991,289,-6.339999999999991,306,-6.339999999999991C323,-6.339999999999991,323,-6.799999999999992,340,-6.799999999999992C357,-6.799999999999992,357,-6.339999999999991,374.00000000000006,-6.339999999999991C391,-6.339999999999991,391,-6.339999999999991,408,-6.339999999999991C425,-6.339999999999991,425,-6.339999999999991,442,-6.339999999999991C459,-6.339999999999991,459,-7.259999999999993,475.99999999999994,-7.259999999999993C493,-7.259999999999993,493,-8.180000000000044,510,-8.180000000000044C527,-8.180000000000044,527,-9.560000000000045,544,-9.560000000000045C561,-9.560000000000045,561,-8.639999999999942,578,-8.639999999999942C595,-8.639999999999942,595,-8.640000000000045,612,-8.640000000000045C629,-8.640000000000045,629,-9.099999999999994,646,-9.099999999999994C663,-9.099999999999994,663,-9.099999999999943,680,-9.099999999999943L680,216.76000000000005C663,216.76000000000005,663,225.96,646,225.96C629,225.96,629,223.65999999999997,612,223.65999999999997C595,223.65999999999997,595,232.86000000000007,578,232.86000000000007C561,232.86000000000007,561,242.97999999999996,544,242.97999999999996C527,242.97999999999996,527,247.57999999999998,510,247.57999999999998C493,247.57999999999998,493,253.56,475.99999999999994,253.56C459,253.56,459,259.08,442,259.08C425,259.08,425,259.08,408,259.08C391,259.08,391,259.53999999999996,374.00000000000006,259.53999999999996C357,259.53999999999996,357,258.15999999999997,340,258.15999999999997C323,258.15999999999997,323,259.53999999999996,306,259.53999999999996C289,259.53999999999996,289,263.68,272,263.68C255,263.68,255,266.44,237.99999999999997,266.44C221,266.44,221,271.5,204,271.5C187,271.5,187,270.58,170,270.58C153,270.58,153,272.88,136,272.88C119,272.88,119,277.02,102,277.02C85,277.02,85,282.54,68,282.54C51,282.54,51,288.52000000000004,34,288.52000000000004C17,288.52000000000004,17,295.74,0,295.74Z"><title>fb</title></path><path fill="#9467bd" d="M0,299.74C17,299.74,17,351.72,34,351.72C51,351.72,51,286.54,68,286.54C85,286.54,85,281.02,102,281.02C119,281.02,119,276.88,136,276.88C153,276.88,153,274.58,170,274.58C187,274.58,187,275.5,204,275.5C221,275.5,221,270.44,237.99999999999997,270.44C255,270.44,255,267.68,272,267.68C289,267.68,289,263.53999999999996,306,263.53999999999996C323,263.53999999999996,323,262.15999999999997,340,262.15999999999997C357,262.15999999999997,357,263.53999999999996,374.00000000000006,263.53999999999996C391,263.53999999999996,391,263.08,408,263.08C425,263.08,425,263.08,442,263.08C459,263.08,459,257.56,475.99999999999994,257.56C493,257.56,493,251.57999999999998,510,251.57999999999998C527,251.57999999999998,527,246.97999999999996,544,246.97999999999996C561,246.97999999999996,561,236.86000000000007,578,236.86000000000007C595,236.86000000000007,595,227.65999999999997,612,227.65999999999997C629,227.65999999999997,629,229.96,646,229.96C663,229.96,663,220.76000000000005,680,220.76000000000005L680,321.04C663,321.04,663,322.42,646,322.42C629,322.42,629,314.14,612,314.14C595,314.14,595,321.04,578,321.04C561,321.04,561,324.71999999999997,544,324.71999999999997C527,324.71999999999997,527,326.56,510,326.56C493,326.56,493,327.48,475.99999999999994,327.48C459,327.48,459,330.7,442,330.7C425,330.7,425,326.09999999999997,408,326.09999999999997C391,326.09999999999997,391,330.24,374.00000000000006,330.24C357,330.24,357,328.4,340,328.4C323,328.4,323,330.7,306,330.7C289,330.7,289,335.76,272,335.76C255,335.76,255,338.98,237.99999999999997,338.98C221,338.98,221,345.88,204,345.88C187,345.88,187,343.12,170,343.12C153,343.12,153,346.34000000000003,136,346.34000000000003C119,346.34000000000003,119,349.1,102,349.1C85,349.1,85,349.1,68,349.1C51,349.1,51,406,34,406C17,406,17,355.40000000000003,0,355.40000000000003Z"><title>sl</title></path><path fill="#2ca02c" d="M0,460C17,460,17,460,34,460C51,460,51,455.4,68,455.4C85,455.4,85,449.88,102,449.88C119,449.88,119,447.58,136,447.58C153,447.58,153,446.65999999999997,170,446.65999999999997C187,446.65999999999997,187,443.44,204,443.44C221,443.44,221,438.84,237.99999999999997,438.84C255,438.84,255,438.38,272,438.38C289,438.38,289,433.78,306,433.78C323,433.78,323,433.32,340,433.32C357,433.32,357,433.78,374.00000000000006,433.78C391,433.78,391,431.47999999999996,408,431.47999999999996C425,431.47999999999996,425,434.23999999999995,442,434.23999999999995C459,434.23999999999995,459,433.78,475.99999999999994,433.78C493,433.78,493,434.7,510,434.7C527,434.7,527,434.23999999999995,544,434.23999999999995C561,434.23999999999995,561,432.86,578,432.86C595,432.86,595,429.64,612,429.64C629,429.64,629,431.47999999999996,646,431.47999999999996C663,431.47999999999996,663,429.64000000000004,680,429.64000000000004L680,460C663,460,663,460,646,460C629,460,629,460,612,460C595,460,595,460,578,460C561,460,561,460,544,460C527,460,527,460,510,460C493,460,493,460,475.99999999999994,460C459,460,459,460,442,460C425,460,425,460,408,460C391,460,391,460,374.00000000000006,460C357,460,357,460,340,460C323,460,323,460,306,460C289,460,289,460,272,460C255,460,255,460,237.99999999999997,460C221,460,221,460,204,460C187,460,187,460,170,460C153,460,153,460,136,460C119,460,119,460,102,460C85,460,85,460,68,460C51,460,51,460,34,460C17,460,17,460,0,460Z"><title>ct</title></path><path fill="#1f77b4" d="M0,359.40000000000003C17,359.40000000000003,17,410,34,410C51,410,51,409.54,68,409.54C85,409.54,85,407.24,102,407.24C119,407.24,119,403.1,136,403.1C153,403.1,153,403.1,170,403.1C187,403.1,187,399.42,204,399.42C221,399.42,221,392.98,237.99999999999997,392.98C255,392.98,255,392.98,272,392.98C289,392.98,289,386.53999999999996,306,386.53999999999996C323,386.53999999999996,323,332.4,340,332.4C357,332.4,357,385.15999999999997,374.00000000000006,385.15999999999997C391,385.15999999999997,391,381.94,408,381.94C425,381.94,425,388.38,442,388.38C459,388.38,459,382.86,475.99999999999994,382.86C493,382.86,493,330.56,510,330.56C527,330.56,527,381.94,544,381.94C561,381.94,561,380.1,578,380.1C595,380.1,595,376.88,612,376.88C629,376.88,629,382.86,646,382.86C663,382.86,663,381.02000000000004,680,381.02000000000004L680,425.64000000000004C663,425.64000000000004,663,427.47999999999996,646,427.47999999999996C629,427.47999999999996,629,425.64,612,425.64C595,425.64,595,428.86,578,428.86C561,428.86,561,430.23999999999995,544,430.23999999999995C527,430.23999999999995,527,379.32,510,379.32C493,379.32,493,429.78,475.99999999999994,429.78C459,429.78,459,430.23999999999995,442,430.23999999999995C425,430.23999999999995,425,427.47999999999996,408,427.47999999999996C391,427.47999999999996,391,429.78,374.00000000000006,429.78C357,429.78,357,380.24,340,380.24C323,380.24,323,429.78,306,429.78C289,429.78,289,434.38,272,434.38C255,434.38,255,434.84,237.99999999999997,434.84C221,434.84,221,439.44,204,439.44C187,439.44,187,442.65999999999997,170,442.65999999999997C153,442.65999999999997,153,443.58,136,443.58C119,443.58,119,445.88,102,445.88C85,445.88,85,451.4,68,451.4C51,451.4,51,456,34,456C17,456,17,410.92,0,410.92Z"><title>cb</title></path><path fill="#ff7f0e" d="M0,414.92C17,414.92,17,292.52000000000004,34,292.52000000000004C51,292.52000000000004,51,353.1,68,353.1C85,353.1,85,353.1,102,353.1C119,353.1,119,350.34000000000003,136,350.34000000000003C153,350.34000000000003,153,347.12,170,347.12C187,347.12,187,349.88,204,349.88C221,349.88,221,342.98,237.99999999999997,342.98C255,342.98,255,339.76,272,339.76C289,339.76,289,334.7,306,334.7C323,334.7,323,384.24,340,384.24C357,384.24,357,334.24,374.00000000000006,334.24C391,334.24,391,330.09999999999997,408,330.09999999999997C425,330.09999999999997,425,334.7,442,334.7C459,334.7,459,331.48,475.99999999999994,331.48C493,331.48,493,383.32,510,383.32C527,383.32,527,328.71999999999997,544,328.71999999999997C561,328.71999999999997,561,325.04,578,325.04C595,325.04,595,318.14,612,318.14C629,318.14,629,326.42,646,326.42C663,326.42,663,325.04,680,325.04L680,377.02000000000004C663,377.02000000000004,663,378.86,646,378.86C629,378.86,629,372.88,612,372.88C595,372.88,595,376.1,578,376.1C561,376.1,561,377.94,544,377.94C527,377.94,527,430.7,510,430.7C493,430.7,493,378.86,475.99999999999994,378.86C459,378.86,459,384.38,442,384.38C425,384.38,425,377.94,408,377.94C391,377.94,391,381.15999999999997,374.00000000000006,381.15999999999997C357,381.15999999999997,357,429.32,340,429.32C323,429.32,323,382.53999999999996,306,382.53999999999996C289,382.53999999999996,289,388.98,272,388.98C255,388.98,255,388.98,237.99999999999997,388.98C221,388.98,221,395.42,204,395.42C187,395.42,187,399.1,170,399.1C153,399.1,153,399.1,136,399.1C119,399.1,119,403.24,102,403.24C85,403.24,85,405.54,68,405.54C51,405.54,51,347.72,34,347.72C17,347.72,17,460,0,460Z"><title>ch</title></path></g><g id="xAxis" transform="translate(0,460)" fill="none" font-size="10" font-family="sans-serif" text-anchor="middle"><path class="domain" stroke="currentColor" d="M0,0H680"/><g class="tick" opacity="1" transform="translate(0,0)"><line stroke="currentColor" y2="6"/><text fill="currentColor" y="9" dy="0.71em">2,002</text></g><g class="tick" opacity="1" transform="translate(68,0)"><line stroke="currentColor" y2="6"/><text fill="currentColor" y="9" dy="0.71em">2,004</text></g><g class="tick" opacity="1" transform="translate(136,0)"><line stroke="currentColor" y2="6"/><text fill="currentColor" y="9" dy="0.71em">2,006</text></g><g class="tick" opacity="1" transform="translate(204,0)"><line stroke="currentColor" y2="6"/><text fill="currentColor" y="9" dy="0.71em">2,008</text></g><g class="tick" opacity="1" transform="translate(272,0)"><line stroke="currentColor" y2="6"/><text fill="currentColor" y="9" dy="0.71em">2,010</text></g><g class="tick" opacity="1" transform="translate(340,0)"><line stroke="currentColor" y2="6"/><text fill="currentColor" y="9" dy="0.71em">2,012</text></g><g class="tick" opacity="1" transform="translate(408,0)"><line stroke="currentColor" y2="6"/><text fill="currentColor" y="9" dy="0.71em">2,014</text></g><g class="tick" opacity="1" transform="translate(475.99999999999994,0)"><line stroke="currentColor" y2="6"/><text fill="currentColor" y="9" dy="0.71em">2,016</text></g><g class="tick" opacity="1" transform="translate(544,0)"><line stroke="currentColor" y2="6"/><text fill="currentColor" y="9" dy="0.71em">2,018</text></g><g class="tick" opacity="1" transform="translate(612,0)"><line stroke="currentColor" y2="6"/><text fill="currentColor" y="9" dy="0.71em">2,020</text></g><g class="tick" opacity="1" transform="translate(680,0)"><line stroke="currentColor" y2="6"/><text fill="currentColor" y="9" dy="0.71em">2,022</text></g></g><g id="yAxis" fill="none" font-size="10" font-family="sans-serif" text-anchor="end"><path class="domain" stroke="currentColor" d="M0,460V0"/><g class="tick" opacity="1" transform="translate(0,460)"><line stroke="currentColor" x2="-6"/><text fill="currentColor" x="-9" dy="0.32em">0.0</text></g><g class="tick" opacity="1" transform="translate(0,414)"><line stroke="currentColor" x2="-6"/><text fill="currentColor" x="-9" dy="0.32em">0.1</text></g><g class="tick" opacity="1" transform="translate(0,368)"><line stroke="currentColor" x2="-6"/><text fill="currentColor" x="-9" dy="0.32em">0.2</text></g><g class="tick" opacity="1" transform="translate(0,322)"><line stroke="currentColor" x2="-6"/><text fill="currentColor" x="-9" dy="0.32em">0.3</text></g><g class="tick" opacity="1" transform="translate(0,276)"><line stroke="currentColor" x2="-6"/><text fill="currentColor" x="-9" dy="0.32em">0.4</text></g><g class="tick" opacity="1" transform="translate(0,230)"><line stroke="currentColor" x2="-6"/><text fill="currentColor" x="-9" dy="0.32em">0.5</text></g><g class="tick" opacity="1" transform="translate(0,184)"><line stroke="currentColor" x2="-6"/><text fill="currentColor" x="-9" dy="0.32em">0.6</text></g><g class="tick" opacity="1" transform="translate(0,138.00000000000003)"><line stroke="currentColor" x2="-6"/><text fill="currentColor" x="-9" dy="0.32em">0.7</text></g><g class="tick" opacity="1" transform="translate(0,91.99999999999999)"><line stroke="currentColor" x2="-6"/><text fill="currentColor" x="-9" dy="0.32em">0.8</text></g><g class="tick" opacity="1" transform="translate(0,45.99999999999999)"><line stroke="currentColor" x2="-6"/><text fill="currentColor" x="-9" dy="0.32em">0.9</text></g><g class="tick" opacity="1" transform="translate(0,0)"><line stroke="currentColor" x2="-6"/><text fill="currentColor" x="-9" dy="0.32em">1.0</text></g></g><text y="456" x="680" text-anchor="end" style="font-family: Arial, sans-serif; font-size: 12px; fill: rgb(123, 123, 123); font-weight: bold;">season</text><text x="4" text-anchor="start" dominant-baseline="hanging" style="font-family: Arial, sans-serif; font-size: 12px; fill: rgb(123, 123, 123); font-weight: bold;">value</text><g id="labels"><text x="0" y="159.61999999999998" text-anchor="start" alignment-baseline="middle" style="font-family: Arial, sans-serif; font-size: 10px; fill: black; font-weight: bold;">fb</text><text x="680" y="282.90000000000003" text-anchor="end" alignment-baseline="middle" style="font-family: Arial, sans-serif; font-size: 10px; fill: black; font-weight: bold;">sl</text><text x="612" y="444.82" text-anchor="middle" alignment-baseline="middle" style="font-family: Arial, sans-serif; font-size: 10px; fill: black; font-weight: bold;">ct</text><text x="0" y="389.16" text-anchor="start" alignment-baseline="middle" style="font-family: Arial, sans-serif; font-size: 10px; fill: black; font-weight: bold;">cb</text><text x="34" y="332.12" text-anchor="middle" alignment-baseline="middle" style="font-family: Arial, sans-serif; font-size: 10px; fill: black; font-weight: bold;">ch</text></g></g><text x="4" y="4" style="font-family: Arial, sans-serif; font-size: 12px; fill: black; font-weight: bold; dominant-baseline: hanging;"/></g><g id="grid"><rect x="0" y="0" width="700" height="500" fill="none" stroke="#ccc"/></g></g></svg>